<?xml version="1.0" encoding="UTF-8"?>
<svg version="1.1" xmlns="http://www.w3.org/2000/svg" width="960" height="1080">
<path d="M0 0 C316.8 0 633.6 0 960 0 C960 356.4 960 712.8 960 1080 C643.2 1080 326.4 1080 0 1080 C0 723.6 0 367.2 0 0 Z " fill="#D48136" transform="translate(0,0)"/>
<path d="M0 0 C316.8 0 633.6 0 960 0 C960 356.4 960 712.8 960 1080 C643.2 1080 326.4 1080 0 1080 C0 723.6 0 367.2 0 0 Z M28 26 C27.90351994 28.22401868 27.87976277 30.45118336 27.88221353 32.67729241 C27.88162987 33.38827522 27.88104622 34.09925803 27.88044487 34.83178577 C27.87970892 37.24921728 27.88619831 39.66657806 27.89256954 42.08400059 C27.89353668 43.82811328 27.89406452 45.57222627 27.89418933 47.31633922 C27.89582988 52.15428332 27.90378055 56.99220043 27.91267301 61.83013589 C27.92122584 67.07627229 27.92400732 72.32241209 27.92749459 77.56855386 C27.93442373 86.77800038 27.94509727 95.98743677 27.95816994 105.19687653 C27.97759204 118.8911367 27.99131259 132.58539836 28.00383171 146.27966638 C28.0250505 169.31177077 28.0509354 192.34386695 28.07946587 215.37596321 C28.10771487 238.19226944 28.13389994 261.0085765 28.15730476 283.82488823 C28.15803198 284.53290246 28.1587592 285.24091669 28.15950846 285.9703859 C28.16614917 292.43679737 28.17276435 298.90320886 28.17934891 305.36962039 C28.1957193 321.44596802 28.21240989 337.52231531 28.22931767 353.59866238 C28.23047232 354.69690775 28.23047232 354.69690775 28.23165031 355.81733991 C28.26914323 391.45187864 28.31032498 427.08641299 28.35180664 462.72094727 C28.36620359 475.09031165 28.38058426 487.45967605 28.39489746 499.82904053 C28.39578516 500.59616689 28.39667285 501.36329325 28.39758745 502.15366587 C28.43881499 537.80084609 28.47742579 573.448029 28.51535956 609.09521286 C28.51782164 611.40883229 28.52028484 613.72245172 28.52274827 616.03607115 C28.53907147 631.36826621 28.55534952 646.70046132 28.57159733 662.03265645 C28.60392815 692.54114941 28.63652428 723.04964209 28.66930261 753.55813457 C28.67086367 755.01110038 28.67242455 756.46406619 28.67398524 757.91703199 C28.76506788 842.71080292 28.86139739 927.50456785 29 1048 C29.33 1048 29.66 1048 30 1048 C30 997.18 30 946.36 30 894 C103.26 894 176.52 894 252 894 C252 946.14 252 998.28 252 1052 C256.95 1052 261.9 1052 267 1052 C267 999.86 267 947.72 267 894 C338.94 894 410.88 894 485 894 C485 946.14 485 998.28 485 1052 C489.95 1052 494.9 1052 500 1052 C500 999.86 500 947.72 500 894 C571.94 894 643.88 894 718 894 C718 946.14 718 998.28 718 1052 C722.95 1052 727.9 1052 733 1052 C733 999.86 733 947.72 733 894 C799 894 865 894 933 894 C933 945.15 933 996.3 933 1049 C933.33 1049 933.66 1049 934 1049 C934.11617742 961.6850966 934.23185037 874.37019141 934.37069702 756.78170776 C934.3723999 755.32668185 934.37410278 753.87165594 934.37580566 752.41663002 C934.41153832 721.87727762 934.44685906 691.33792475 934.48170377 660.79857132 C934.49920707 645.45833025 934.51678956 630.11808926 934.5344469 614.77784836 C934.53711003 612.46378739 934.5397709 610.14972641 934.54243168 607.83566543 C934.58343847 572.18967491 934.6261465 536.54368743 934.67376709 500.89770508 C934.67479145 500.13090654 934.6758158 499.36410799 934.6768712 498.57407313 C934.69339787 486.21049975 934.71006693 473.84692656 934.72675487 461.4833534 C934.7748015 425.88550633 934.82180051 390.28765929 934.86182213 354.68980217 C934.86264513 353.95822505 934.86346814 353.22664793 934.86431608 352.4729018 C934.88236127 336.41551061 934.89986463 320.35811887 934.91685449 304.30072653 C934.92369952 297.84040611 934.9306226 291.38008578 934.93757248 284.91976547 C934.93871063 283.85916477 934.93871063 283.85916477 934.93987177 282.77713779 C934.96438437 259.97094059 934.9952579 237.16475742 935.02944699 214.35857284 C935.06479485 190.75954541 935.09311552 167.16052242 935.11317255 143.56147613 C935.12497 129.94233744 935.14241336 116.32323253 935.16775701 102.70411218 C935.18411132 93.62343666 935.19329419 84.54277276 935.19648318 75.46208311 C935.19851414 70.27722982 935.20381693 65.09243341 935.21781154 59.90759744 C935.23045539 55.20062284 935.23406481 50.49373548 935.23014055 45.78674633 C935.23036333 44.08508318 935.23401835 42.38341656 935.24133223 40.68176911 C935.25071365 38.38823167 935.24797994 36.09503178 935.24198496 33.8014909 C935.24354477 32.52650528 935.24510458 31.25151966 935.24671165 29.93789811 C935.30800566 26.87770216 935.30800566 26.87770216 933 25 C930.24590915 24.69624171 930.24590915 24.69624171 926.95627922 24.75045234 C925.65623171 24.74570153 924.3561842 24.74095072 923.01674131 24.73605594 C921.55735849 24.7408993 920.09797627 24.74592445 918.63859463 24.75111103 C917.09485815 24.74933004 915.55112248 24.74667178 914.00738886 24.74321017 C909.73043585 24.73620125 905.45357459 24.74178131 901.17662572 24.74926625 C896.53687483 24.75520772 891.89713614 24.7496151 887.25738531 24.74544543 C879.11413887 24.73974269 870.97092024 24.74152973 862.82767487 24.7481308 C850.71879507 24.75791957 838.60993576 24.75632353 826.50105362 24.7523805 C806.13469509 24.74609426 785.76834811 24.74928958 765.40199089 24.75797462 C745.22687612 24.76657645 725.05176654 24.77149508 704.87664986 24.77130699 C703.62367497 24.77129935 702.37070009 24.7712917 701.07975627 24.77128382 C695.99406977 24.77124292 690.90838328 24.77117731 685.82269678 24.77107801 C650.31068295 24.77040351 614.79867052 24.77316111 579.28665829 24.78392506 C578.28208853 24.78422947 578.28208853 24.78422947 577.25722444 24.78454002 C566.38063353 24.78784899 555.50404267 24.79134418 544.62745182 24.79484874 C501.48364831 24.80873879 458.33985067 24.81538185 415.19604492 24.81469727 C413.83232732 24.81467688 412.46860971 24.81465666 411.10489211 24.81463663 C408.38071694 24.81459645 405.65654177 24.81455567 402.9323666 24.81451452 C396.82459269 24.8144231 390.71681878 24.81433875 384.60904488 24.81426793 C383.25634998 24.81425216 381.90365508 24.81423572 380.55096018 24.8142186 C344.44015279 24.81377362 308.32934612 24.81824497 272.2185393 24.82457083 C270.95873788 24.82479111 269.69893647 24.82501138 268.40095926 24.82523832 C263.33451701 24.8261266 258.26807477 24.82701499 253.20163253 24.82792928 C235.54349397 24.8310942 217.88535596 24.83259918 200.22721714 24.83304077 C177.47713711 24.83363678 154.72706175 24.83760943 131.97698372 24.84747223 C119.9328855 24.85260297 107.88879412 24.85499138 95.84469486 24.85347604 C87.81523027 24.85274515 79.78577236 24.85561871 71.75630991 24.86151985 C67.17109783 24.86478997 62.58590015 24.8664343 58.00068735 24.86375926 C53.83900553 24.86136639 49.67735266 24.86348241 45.51567455 24.86937737 C44.01028873 24.87069001 42.5049003 24.87028566 40.99951555 24.86806076 C38.97246864 24.86530346 36.94541582 24.86918885 34.91837162 24.87350017 C33.7909232 24.87379167 32.66347479 24.87408317 31.50186127 24.8743835 C29.05981287 24.71660094 29.05981287 24.71660094 28 26 Z " fill="#DB8638" transform="translate(0,0)"/>
<path d="M0 0 C73.26 0 146.52 0 222 0 C222 72.6 222 145.2 222 220 C148.74 220 75.48 220 0 220 C0 147.4 0 74.8 0 0 Z " fill="#F7F0E4" transform="translate(30,28)"/>
<path d="M0 0 C71.94 0 143.88 0 218 0 C218 72.6 218 145.2 218 220 C146.06 220 74.12 220 0 220 C0 147.4 0 74.8 0 0 Z " fill="#F7F0E4" transform="translate(500,28)"/>
<path d="M0 0 C71.94 0 143.88 0 218 0 C218 72.6 218 145.2 218 220 C146.06 220 74.12 220 0 220 C0 147.4 0 74.8 0 0 Z " fill="#F7F0E4" transform="translate(267,28)"/>
<path d="M0 0 C73.26 0 146.52 0 222 0 C222 66.99 222 133.98 222 203 C148.74 203 75.48 203 0 203 C0 136.01 0 69.02 0 0 Z " fill="#F7F0E4" transform="translate(30,481)"/>
<path d="M0 0 C73.26 0 146.52 0 222 0 C222 66.99 222 133.98 222 203 C148.74 203 75.48 203 0 203 C0 136.01 0 69.02 0 0 Z " fill="#F7F0E4" transform="translate(30,263)"/>
<path d="M0 0 C71.94 0 143.88 0 218 0 C218 66.99 218 133.98 218 203 C146.06 203 74.12 203 0 203 C0 136.01 0 69.02 0 0 Z " fill="#F7F0E4" transform="translate(500,481)"/>
<path d="M0 0 C71.94 0 143.88 0 218 0 C218 66.99 218 133.98 218 203 C146.06 203 74.12 203 0 203 C0 136.01 0 69.02 0 0 Z " fill="#F7F0E4" transform="translate(267,481)"/>
<path d="M0 0 C71.94 0 143.88 0 218 0 C218 66.99 218 133.98 218 203 C146.06 203 74.12 203 0 203 C0 136.01 0 69.02 0 0 Z " fill="#F7F0E4" transform="translate(500,263)"/>
<path d="M0 0 C71.94 0 143.88 0 218 0 C218 66.99 218 133.98 218 203 C146.06 203 74.12 203 0 203 C0 136.01 0 69.02 0 0 Z " fill="#F7F0E4" transform="translate(267,263)"/>
<path d="M0 0 C66 0 132 0 200 0 C200 72.6 200 145.2 200 220 C134 220 68 220 0 220 C0 147.4 0 74.8 0 0 Z " fill="#F7F0E4" transform="translate(733,28)"/>
<path d="M0 0 C66 0 132 0 200 0 C200 66.99 200 133.98 200 203 C134 203 68 203 0 203 C0 136.01 0 69.02 0 0 Z " fill="#F7F0E4" transform="translate(733,481)"/>
<path d="M0 0 C66 0 132 0 200 0 C200 66.99 200 133.98 200 203 C134 203 68 203 0 203 C0 136.01 0 69.02 0 0 Z " fill="#F7F0E4" transform="translate(733,263)"/>
<path d="M0 0 C73.26 0 146.52 0 222 0 C222 59.4 222 118.8 222 180 C148.74 180 75.48 180 0 180 C0 120.6 0 61.2 0 0 Z " fill="#F7F0E4" transform="translate(30,699)"/>
<path d="M0 0 C71.94 0 143.88 0 218 0 C218 59.4 218 118.8 218 180 C146.06 180 74.12 180 0 180 C0 120.6 0 61.2 0 0 Z " fill="#F7F0E4" transform="translate(500,699)"/>
<path d="M0 0 C71.94 0 143.88 0 218 0 C218 59.4 218 118.8 218 180 C146.06 180 74.12 180 0 180 C0 120.6 0 61.2 0 0 Z " fill="#F7F0E4" transform="translate(267,699)"/>
<path d="M0 0 C66 0 132 0 200 0 C200 59.4 200 118.8 200 180 C134 180 68 180 0 180 C0 120.6 0 61.2 0 0 Z " fill="#F7F0E4" transform="translate(733,699)"/>
<path d="M0 0 C73.26 0 146.52 0 222 0 C222 52.14 222 104.28 222 158 C148.74 158 75.48 158 0 158 C0 105.86 0 53.72 0 0 Z " fill="#F7F0E4" transform="translate(30,894)"/>
<path d="M0 0 C71.94 0 143.88 0 218 0 C218 52.14 218 104.28 218 158 C146.06 158 74.12 158 0 158 C0 105.86 0 53.72 0 0 Z " fill="#F7F0E4" transform="translate(500,894)"/>
<path d="M0 0 C71.94 0 143.88 0 218 0 C218 52.14 218 104.28 218 158 C146.06 158 74.12 158 0 158 C0 105.86 0 53.72 0 0 Z " fill="#F7F0E4" transform="translate(267,894)"/>
<path d="M0 0 C66 0 132 0 200 0 C200 52.14 200 104.28 200 158 C134 158 68 158 0 158 C0 105.86 0 53.72 0 0 Z " fill="#F7F0E4" transform="translate(733,894)"/>
<path d="M0 0 C1.29754399 -0.00275974 2.59508799 -0.00551949 3.93195149 -0.00836286 C5.39369866 -0.00637451 6.8554457 -0.00429502 8.31719261 -0.00213462 C9.85946018 -0.00347942 11.40172741 -0.00526225 12.94399402 -0.00744686 C17.22151438 -0.01220987 21.49901365 -0.01066462 25.7765351 -0.00816908 C30.41520285 -0.00654518 35.0538659 -0.01066914 39.69253218 -0.01407826 C47.83545287 -0.01924856 55.97836762 -0.02064665 64.12128979 -0.01962215 C76.22976341 -0.0181024 88.3382304 -0.02224741 100.44670273 -0.02749677 C123.32613777 -0.03718797 146.20557057 -0.03998167 169.08500742 -0.04055383 C186.74705959 -0.04101264 204.40911088 -0.04306714 222.07116276 -0.04625446 C227.14749773 -0.04715194 232.22383271 -0.04804175 237.30016768 -0.04892933 C238.56200746 -0.04915038 239.82384725 -0.04937143 241.1239246 -0.04959918 C276.63629182 -0.0557568 312.14865879 -0.05970528 347.66102654 -0.0592559 C349.014551 -0.05924012 350.36807547 -0.05922438 351.72159994 -0.05920869 C357.8329738 -0.0591353 363.94434766 -0.05904713 370.05572152 -0.05895481 C372.78107135 -0.05891368 375.50642118 -0.05887353 378.23177101 -0.05883349 C379.59585936 -0.0588131 380.95994771 -0.05879208 382.32403605 -0.05877043 C425.46776499 -0.05809003 468.61148573 -0.06540934 511.75521237 -0.07931072 C522.62623711 -0.08281155 533.49726186 -0.08628093 544.36828667 -0.08957511 C545.03760075 -0.08977799 545.70691483 -0.08998086 546.39651116 -0.09018988 C582.50711685 -0.10106926 618.61772303 -0.10305256 654.72833025 -0.10234749 C659.80497958 -0.10227286 664.88162891 -0.10222415 669.95827824 -0.10219318 C671.83340827 -0.1021757 671.83340827 -0.1021757 673.74641972 -0.10215786 C693.9094042 -0.10212702 714.07238179 -0.10852712 734.23536422 -0.11712544 C754.4807893 -0.12558068 774.72620423 -0.12660865 794.97163009 -0.12001612 C807.0155223 -0.11630623 819.05938378 -0.11819546 831.10327277 -0.12795846 C839.13391052 -0.13392096 847.16452581 -0.13270497 855.19516249 -0.12548796 C859.78025596 -0.12157462 864.36528962 -0.1209211 868.95037907 -0.12894531 C873.11314866 -0.13616719 877.27580803 -0.13435587 881.43857253 -0.12502145 C882.94322359 -0.12328555 884.44788303 -0.12497521 885.95252559 -0.13032265 C887.98097654 -0.13705463 890.00945902 -0.13046046 892.0379076 -0.12304783 C893.16542377 -0.12313605 894.29293995 -0.12322427 895.45462328 -0.12331517 C898.08162838 0.12649983 898.08162838 0.12649983 900.08162838 2.12649983 C900.32834003 5.06439794 900.32834003 5.06439794 900.32361335 8.92799073 C900.32547509 9.64025163 900.32733684 10.35251253 900.329255 11.08635709 C900.3330818 13.50218491 900.32249008 15.91774258 900.31210667 18.33354825 C900.31187818 20.07882672 900.31252833 21.8241055 900.31398338 23.56938338 C900.3154317 28.40592826 900.30427603 33.2423774 900.29122156 38.07890191 C900.27924423 43.32522908 900.2788199 48.57155864 900.27697748 53.81789738 C900.27213009 63.02614158 900.2597994 72.23435264 900.24266392 81.44258183 C900.21721727 95.13502157 900.20318147 108.82745609 900.19154413 122.51991368 C900.17164503 145.54935413 900.14241632 168.57877088 900.10789257 191.6081931 C900.07372207 214.42087988 900.04368157 237.23356598 900.01920086 260.0462653 C900.01843923 260.75424512 900.0176776 261.46222494 900.01689289 262.1916587 C900.00993896 268.65778414 900.00303608 275.12390964 899.99619446 281.59003521 C899.9791849 297.66545811 899.96153491 313.74088028 899.94345051 329.816302 C899.94221588 330.9144674 899.94221588 330.9144674 899.9409563 332.03481796 C899.90084334 367.66418095 899.85335252 403.29353359 899.80526119 438.92288655 C899.78857258 451.28999258 899.77191655 463.65709865 899.75539547 476.02420491 C899.75437083 476.79119432 899.75334618 477.55818374 899.75229049 478.34841525 C899.7047188 513.99121973 899.66238178 549.63402986 899.62139858 585.27684245 C899.61873844 587.59026299 899.61607604 589.90368352 899.61341319 592.21710406 C899.59577019 607.54801945 899.57821749 622.87893494 899.56072527 638.2098505 C899.52591807 668.71562974 899.49058024 699.22140836 899.45487794 729.72718657 C899.45317764 731.18001332 899.45147771 732.63284008 899.44977814 734.08566683 C899.35059379 818.86746538 899.24091506 903.64925026 899.08162838 1024.12649983 C898.75162838 1024.12649983 898.42162838 1024.12649983 898.08162838 1024.12649983 C898.08162838 972.97649983 898.08162838 921.82649983 898.08162838 869.12649983 C832.08162838 869.12649983 766.08162838 869.12649983 698.08162838 869.12649983 C697.75162838 869.78649983 697.42162838 870.44649983 697.08162838 871.12649983 C697.08162838 869.47649983 697.08162838 867.82649983 697.08162838 866.12649983 C763.41162838 866.12649983 829.74162838 866.12649983 898.08162838 866.12649983 C898.08162838 802.76649983 898.08162838 739.40649983 898.08162838 674.12649983 C832.08162838 674.12649983 766.08162838 674.12649983 698.08162838 674.12649983 C697.75162838 674.78649983 697.42162838 675.44649983 697.08162838 676.12649983 C697.08162838 674.47649983 697.08162838 672.82649983 697.08162838 671.12649983 C763.41162838 671.12649983 829.74162838 671.12649983 898.08162838 671.12649983 C898.08162838 600.17649983 898.08162838 529.22649983 898.08162838 456.12649983 C832.08162838 456.12649983 766.08162838 456.12649983 698.08162838 456.12649983 C697.75162838 456.78649983 697.42162838 457.44649983 697.08162838 458.12649983 C697.08162838 456.47649983 697.08162838 454.82649983 697.08162838 453.12649983 C763.41162838 453.12649983 829.74162838 453.12649983 898.08162838 453.12649983 C898.08162838 382.17649983 898.08162838 311.22649983 898.08162838 238.12649983 C832.08162838 238.12649983 766.08162838 238.12649983 698.08162838 238.12649983 C697.75162838 238.78649983 697.42162838 239.44649983 697.08162838 240.12649983 C697.08162838 238.47649983 697.08162838 236.82649983 697.08162838 235.12649983 C763.41162838 235.12649983 829.74162838 235.12649983 898.08162838 235.12649983 C898.08162838 158.56649983 898.08162838 82.00649983 898.08162838 3.12649983 C600.09162838 3.12649983 302.10162838 3.12649983 -4.91837162 3.12649983 C-4.91837162 79.68649983 -4.91837162 156.24649983 -4.91837162 235.12649983 C68.67162838 235.12649983 142.26162838 235.12649983 218.08162838 235.12649983 C218.08162838 236.77649983 218.08162838 238.42649983 218.08162838 240.12649983 C217.75162838 239.46649983 217.42162838 238.80649983 217.08162838 238.12649983 C143.82162838 238.12649983 70.56162838 238.12649983 -4.91837162 238.12649983 C-4.91837162 309.07649983 -4.91837162 380.02649983 -4.91837162 453.12649983 C68.67162838 453.12649983 142.26162838 453.12649983 218.08162838 453.12649983 C218.08162838 454.77649983 218.08162838 456.42649983 218.08162838 458.12649983 C217.75162838 457.46649983 217.42162838 456.80649983 217.08162838 456.12649983 C143.82162838 456.12649983 70.56162838 456.12649983 -4.91837162 456.12649983 C-4.91837162 527.07649983 -4.91837162 598.02649983 -4.91837162 671.12649983 C68.67162838 671.12649983 142.26162838 671.12649983 218.08162838 671.12649983 C218.08162838 672.77649983 218.08162838 674.42649983 218.08162838 676.12649983 C217.75162838 675.46649983 217.42162838 674.80649983 217.08162838 674.12649983 C143.82162838 674.12649983 70.56162838 674.12649983 -4.91837162 674.12649983 C-4.91837162 737.48649983 -4.91837162 800.84649983 -4.91837162 866.12649983 C68.67162838 866.12649983 142.26162838 866.12649983 218.08162838 866.12649983 C218.08162838 867.77649983 218.08162838 869.42649983 218.08162838 871.12649983 C217.75162838 870.46649983 217.42162838 869.80649983 217.08162838 869.12649983 C143.82162838 869.12649983 70.56162838 869.12649983 -4.91837162 869.12649983 C-4.91837162 919.94649983 -4.91837162 970.76649983 -4.91837162 1023.12649983 C-5.24837162 1023.12649983 -5.57837162 1023.12649983 -5.91837162 1023.12649983 C-6.01919045 935.79846688 -6.11975739 848.47043337 -6.2467255 730.86586446 C-6.24828893 729.41069909 -6.24985236 727.95553373 -6.25141579 726.50036836 C-6.28422572 695.95830963 -6.31682971 665.41625068 -6.34919571 634.87419148 C-6.36545363 619.5326662 -6.38175114 604.19114096 -6.39808607 588.84961575 C-6.40054996 586.5353563 -6.40301271 584.22109684 -6.40547542 581.90683738 C-6.44342261 546.25640343 -6.48222053 510.60597065 -6.52347416 474.95554036 C-6.52436162 474.18860492 -6.52524907 473.42166948 -6.52616343 472.63149357 C-6.5404777 460.26565725 -6.55486315 447.89982101 -6.56925805 435.53398479 C-6.61070184 399.93104551 -6.65162221 364.32810597 -6.68905395 328.72516221 C-6.68982342 327.99353155 -6.69059289 327.26190089 -6.69138568 326.50809961 C-6.708265 310.44980847 -6.72487343 294.39151706 -6.74122512 278.33322538 C-6.74780855 271.87261291 -6.754431 265.41200048 -6.76106685 258.95138806 C-6.76179219 258.2442875 -6.76251753 257.53718694 -6.76326485 256.80865908 C-6.78668259 233.99869935 -6.81328111 211.18874467 -6.8415364 188.37879046 C-6.87075724 164.77735486 -6.89646666 141.17591864 -6.91804279 117.57447458 C-6.93060669 103.9529153 -6.94599548 90.33136585 -6.96533108 76.70981447 C-6.97794978 67.62879522 -6.98698655 58.54777713 -6.99302298 49.46675113 C-6.99657532 44.28089802 -7.00176803 39.09505994 -7.01129998 33.90921409 C-7.01992081 29.20250747 -7.02403538 24.49582049 -7.02437219 19.78910619 C-7.02531637 18.08641348 -7.02798109 16.38372075 -7.03246861 14.6810337 C-7.03827308 12.38859412 -7.03803999 10.09623638 -7.03615808 7.80379224 C-7.03826382 5.89107983 -7.03826382 5.89107983 -7.0404121 3.93972677 C-6.8222707 -1.08877899 -4.48289768 0.00115904 0 0 Z " fill="#865222" transform="translate(34.91837161779404,24.873500168323517)"/>
<path d="M0 0 C0.99 0.33 1.98 0.66 3 1 C3 354.76 3 708.52 3 1073 C318.48 1073 633.96 1073 959 1073 C959 719.57 959 366.14 959 2 C959.33 2 959.66 2 960 2 C960 356.75 960 711.5 960 1077 C643.2 1077 326.4 1077 0 1077 C0 721.59 0 366.18 0 0 Z " fill="#AF6B2C" transform="translate(0,3)"/>
<path d="M0 0 C1.30041083 -0.00275974 2.60082165 -0.00551949 3.94063887 -0.00836286 C5.40562713 -0.00637451 6.87061528 -0.00429502 8.3356033 -0.00213462 C9.88128172 -0.00347942 11.42695981 -0.00526225 12.97263727 -0.00744686 C17.25962799 -0.01220988 21.54659766 -0.01066462 25.83358946 -0.00816908 C30.48252324 -0.00654518 35.13145234 -0.01066913 39.78038466 -0.01407826 C47.94133011 -0.01924857 56.10226963 -0.02064665 64.26321656 -0.01962215 C76.39849268 -0.0181024 88.53376219 -0.02224741 100.66903703 -0.02749677 C123.59911498 -0.03718798 146.52919071 -0.03998167 169.45927047 -0.04055383 C187.16041494 -0.04101264 204.86155853 -0.04306714 222.56270272 -0.04625446 C227.65027165 -0.04715194 232.73784059 -0.04804175 237.82540953 -0.04892933 C239.09004174 -0.04915038 240.35467395 -0.04937143 241.65762834 -0.04959918 C277.24858725 -0.0557568 312.83954591 -0.05970528 348.43050534 -0.0592559 C349.78702548 -0.05924012 351.14354562 -0.05922438 352.50006577 -0.05920869 C358.6249657 -0.0591353 364.74986564 -0.05904713 370.87476558 -0.05895481 C373.60614738 -0.05891368 376.33752918 -0.05887353 379.06891098 -0.05883349 C380.43601844 -0.0588131 381.8031259 -0.05879208 383.17023336 -0.05877043 C426.40945777 -0.05809003 469.648674 -0.06540934 512.88789612 -0.07931072 C523.78298397 -0.08281155 534.67807184 -0.08628093 545.57315975 -0.08957511 C546.24395534 -0.08977799 546.91475093 -0.08998086 547.60587366 -0.09018988 C583.7963952 -0.10106926 619.98691722 -0.10305256 656.17744029 -0.10234749 C661.26532358 -0.10227286 666.35320687 -0.10222415 671.44109017 -0.10219318 C673.32036965 -0.1021757 673.32036965 -0.1021757 675.23761438 -0.10215786 C695.44523085 -0.10212702 715.65284043 -0.10852712 735.86045485 -0.11712544 C756.15068822 -0.12558067 776.44091146 -0.12660866 796.73114561 -0.12001612 C808.80169922 -0.11630622 820.87222216 -0.11819548 832.94277255 -0.12795846 C840.99118204 -0.13392095 849.03956912 -0.13270498 857.08797753 -0.12548796 C861.68322137 -0.12157461 866.27840553 -0.12092113 870.87364536 -0.12894531 C875.04562515 -0.13616715 879.21749497 -0.13435591 883.38946967 -0.12502145 C884.89745482 -0.12328554 886.40544835 -0.12497524 887.91342502 -0.13032265 C889.94636014 -0.13705456 891.97932673 -0.1304605 894.01225948 -0.12304783 C895.14227135 -0.12313605 896.27228321 -0.12322427 897.43653786 -0.12331517 C900.06880432 0.12649983 900.06880432 0.12649983 902.06880432 2.12649983 C902.31814665 5.06702862 902.31814665 5.06702862 902.31720132 8.93440276 C902.32103557 10.00383575 902.32103557 10.00383575 902.32494729 11.09487344 C902.33113187 13.51305867 902.32291175 15.93098861 902.31489998 18.34916562 C902.31637775 20.09615035 902.31873331 21.84313453 902.32189298 23.59011704 C902.32806769 28.43138817 902.32165063 33.27257614 902.31333671 38.11384112 C902.30649946 43.36530837 902.31120393 48.61676674 902.31449169 53.86823565 C902.31865025 63.08548576 902.3153328 72.30271012 902.30721527 81.51995724 C902.29517809 95.22580645 902.2945406 108.93163932 902.29629925 122.63749285 C902.29893127 145.68946439 902.29224278 168.74142139 902.28026444 191.79338902 C902.26842713 214.628409 902.26071579 237.46342428 902.25855881 260.29844731 C902.25845557 261.36145625 902.25845557 261.36145625 902.25835025 262.44594012 C902.25772387 268.91839311 902.25714849 275.39084611 902.2566343 281.86329911 C902.25535537 297.95445264 902.25343663 314.04560606 902.25108391 330.13675946 C902.25097728 330.86958618 902.25087064 331.6024129 902.25076077 332.3574465 C902.24551534 368.02167699 902.23289924 403.68590437 902.21968323 439.35013264 C902.21509999 451.72934405 902.2105493 464.10855546 902.20613343 476.48776692 C902.20572258 477.63937716 902.20572258 477.63937716 902.20530343 478.81425226 C902.1926197 514.4919447 902.18516552 550.16963767 902.17906383 585.84733177 C902.17866771 588.16301632 902.17826932 590.47870086 902.17787048 592.79438541 C902.17523096 608.14030427 902.17268165 623.48622316 902.17019276 638.83214205 C902.16523951 669.36777524 902.15975613 699.90340832 902.15390866 730.43904135 C902.15363018 731.89328993 902.15335207 733.34753851 902.15307434 734.80178708 C902.1368626 819.66655822 902.11016672 904.53132597 902.06880432 1025.12649983 C901.07880432 1025.12649983 900.08880432 1025.12649983 899.06880432 1025.12649983 C899.06982843 1024.23943241 899.07085253 1023.35236498 899.07190767 1022.43841672 C899.17248732 935.28985993 899.27276241 848.14130252 899.39715821 732.86586446 C899.39872163 731.41069909 899.40028506 729.95553373 899.40184849 728.50036836 C899.43465842 697.95830963 899.46726242 667.41625068 899.49962841 636.87419148 C899.51588634 621.5326662 899.53218384 606.19114096 899.54851878 590.84961575 C899.55098266 588.5353563 899.55344542 586.22109684 899.55590812 583.90683738 C899.59385532 548.25640343 899.63265323 512.60597065 899.67390686 476.95554036 C899.67479432 476.18860492 899.67568178 475.42166948 899.67659613 474.63149357 C899.6909104 462.26565725 899.70529586 449.89982101 899.71969075 437.53398479 C899.76113455 401.93104551 899.80205491 366.32810597 899.83948666 330.72516221 C899.84064086 329.62771622 899.84064086 329.62771622 899.84181838 328.50809961 C899.85869771 312.44980847 899.87530614 296.39151706 899.89165783 280.33322538 C899.89824126 273.87261291 899.90486371 267.41200048 899.91149956 260.95138806 C899.91258757 259.89073722 899.91258757 259.89073722 899.91369756 258.80865908 C899.9371153 235.99869935 899.96371381 213.18874467 899.99196911 190.37879046 C900.02118994 166.77735486 900.04689936 143.17591864 900.06847549 119.57447458 C900.08103939 105.9529153 900.09642818 92.33136585 900.11576379 78.70981447 C900.12838249 69.62879522 900.13741926 60.54777713 900.14345569 51.46675113 C900.14700803 46.28089802 900.15220074 41.09505994 900.16173268 35.90921409 C900.17035352 31.20250747 900.17446808 26.49582049 900.1748049 21.78910619 C900.17574907 20.08641348 900.1784138 18.38372075 900.18290131 16.6810337 C900.18870579 14.38859412 900.1884727 12.09623638 900.18659079 9.80379224 C900.18869653 7.89107983 900.18869653 7.89107983 900.19084481 5.93972677 C900.39044273 3.22287284 900.39044273 3.22287284 899.06880432 2.12649983 C897.09725697 2.02829204 895.12212318 2.00202835 893.14813137 2.00230134 C891.20114004 1.99893038 891.20114004 1.99893038 889.21481555 1.99549132 C887.75242804 1.99805777 886.29004068 2.00071473 884.82765347 2.003452 C883.28421516 2.00271335 881.74077701 2.00153582 880.19733933 1.99995581 C875.91788332 1.99686695 871.63845079 2.00007778 867.35899652 2.00423408 C862.72843635 2.00764576 858.09787875 2.00529842 853.46731812 2.00365132 C845.33038617 2.00156606 837.19346152 2.00323335 829.05653042 2.0072847 C816.79984839 2.01336733 804.54317081 2.01365623 792.28648754 2.0128194 C771.7500223 2.01157503 751.21356024 2.01488022 730.67709595 2.02092427 C702.90894191 2.02908228 675.14079334 2.03102626 647.37263733 2.03189534 C580.58385901 2.0371527 513.79508161 2.05111371 447.00630432 2.06399983 C223.29724182 2.09493733 223.29724182 2.09493733 -4.93119568 2.12649983 C-4.60119568 340.04649983 -4.27119568 677.96649983 -3.93119568 1026.12649983 C-4.92119568 1025.79649983 -5.91119568 1025.46649983 -6.93119568 1025.12649983 C-6.94655131 937.62754266 -6.9616553 850.12858517 -6.97353882 732.29384297 C-6.97367827 730.83582965 -6.97381772 729.37781633 -6.97395717 727.91980301 C-6.97687965 697.31796958 -6.97959638 666.71613613 -6.98207535 636.11430266 C-6.98332078 620.74275234 -6.98460576 605.37120204 -6.98592812 589.99965173 C-6.98612737 587.680863 -6.98632548 585.36207427 -6.98652356 583.04328554 C-6.98958475 547.32307823 -6.99349583 511.60287127 -6.99986023 475.88266438 C-6.99999713 475.11422782 -7.00013402 474.34579126 -7.00027507 473.55406874 C-7.00248754 461.16402876 -7.00477111 448.77398879 -7.00706412 436.38394882 C-7.01366492 400.71132501 -7.0197428 365.03870148 -7.02233547 329.36607713 C-7.022389 328.6330146 -7.02244254 327.89995208 -7.0224977 327.14467554 C-7.02366327 311.05495715 -7.02455821 294.96523875 -7.02519666 278.87552034 C-7.02545829 272.40226425 -7.02575891 265.92900816 -7.02607292 259.45575207 C-7.02610635 258.74726769 -7.02613977 258.0387833 -7.02617421 257.30882969 C-7.02727194 234.45422732 -7.03154733 211.5996269 -7.03747788 188.74502531 C-7.04359935 165.09739459 -7.04621283 141.44976669 -7.04469705 117.802135 C-7.04393336 104.15391744 -7.04599182 90.50570692 -7.05199322 76.85749063 C-7.05572273 67.75869632 -7.05587382 58.65990665 -7.05302749 49.56111203 C-7.0515071 44.36511101 -7.05162549 39.16912336 -7.05607886 33.97312374 C-7.06009038 29.2572027 -7.05960006 24.5413056 -7.05533565 19.82538499 C-7.05461449 18.1193599 -7.0556122 16.41333312 -7.05843092 14.70731021 C-7.06198882 12.41038212 -7.05951515 10.11354144 -7.05539417 7.8166163 C-7.05555015 6.538979 -7.05570613 5.26134171 -7.05586684 3.94498814 C-6.8330644 -1.09199107 -4.4923084 0.00115891 0 0 Z " fill="#B66F2E" transform="translate(33.93119567632675,23.873500168323517)"/>
<path d="M0 0 C1.1649451 3.69127141 1.12204692 7.17089793 1.11778647 11.02423978 C1.11837013 11.73627914 1.11895378 12.4483185 1.11955513 13.18193481 C1.12028671 15.58487526 1.11382028 17.98774327 1.10743046 20.39067459 C1.1064626 22.13146207 1.10593539 23.87224984 1.10581067 25.61303759 C1.10417472 30.42776295 1.09623461 35.24246098 1.08732699 40.05717764 C1.07875638 45.28335941 1.07598977 50.50954465 1.07250541 55.73573184 C1.06558374 64.90549067 1.05491493 74.07523929 1.04183006 83.2449913 C1.02238998 96.88018842 1.00867997 110.51538704 0.99616829 124.15059206 C0.97496058 147.08452344 0.949077 170.01844655 0.92053413 192.95236969 C0.89227654 215.66850831 0.8660922 238.38464777 0.84269524 261.10079193 C0.84196802 261.8059317 0.8412408 262.51107147 0.84049154 263.23757911 C0.83385075 269.67782263 0.82723556 276.11806618 0.82065109 282.55830976 C0.80428158 298.56895745 0.78759091 314.5796048 0.77068233 330.59025192 C0.76991256 331.31938974 0.76914279 332.04852755 0.76834969 332.79976045 C0.73086488 368.27927035 0.68968003 403.75877584 0.64819336 439.23828125 C0.63379629 451.55244951 0.61941556 463.86661778 0.60510254 476.18078613 C0.60421484 476.94449866 0.60332715 477.70821119 0.60241255 478.49506652 C0.56117814 513.98959051 0.52256996 549.48411721 0.48464044 584.97864486 C0.48217837 587.28261157 0.47971516 589.58657828 0.47725173 591.89054498 C0.4609284 607.15888758 0.44465037 622.42723023 0.42840267 637.69557291 C0.39607261 668.07650619 0.3634764 698.45743918 0.33069739 728.83837197 C0.32913633 730.28523332 0.32757545 731.73209466 0.32601476 733.17895601 C0.23385302 818.61687627 0.13632483 904.0547904 0 1022 C-0.33 1022 -0.66 1022 -1 1022 C-1 970.85 -1 919.7 -1 867 C-67 867 -133 867 -201 867 C-201.33 867.66 -201.66 868.32 -202 869 C-202 867.35 -202 865.7 -202 864 C-135.67 864 -69.34 864 -1 864 C-1 800.64 -1 737.28 -1 672 C-67 672 -133 672 -201 672 C-201.33 672.66 -201.66 673.32 -202 674 C-202 672.35 -202 670.7 -202 669 C-135.67 669 -69.34 669 -1 669 C-1 598.05 -1 527.1 -1 454 C-67 454 -133 454 -201 454 C-201.33 454.66 -201.66 455.32 -202 456 C-202 454.35 -202 452.7 -202 451 C-135.67 451 -69.34 451 -1 451 C-1 380.05 -1 309.1 -1 236 C-67 236 -133 236 -201 236 C-201.495 236.99 -201.495 236.99 -202 238 C-202 236.35 -202 234.7 -202 233 C-135.67 233 -69.34 233 -1 233 C-1.01160156 216.43167969 -1.02320313 199.86335938 -1.03515625 182.79296875 C-1.04026305 172.32486964 -1.04511809 161.85677142 -1.04882812 151.38867188 C-1.05079187 145.89184567 -1.05280658 140.3950195 -1.05493164 134.89819336 C-1.05519539 134.20922956 -1.05545914 133.52026576 -1.05573088 132.81042427 C-1.06008345 121.67901829 -1.06796906 110.54761747 -1.0771528 99.41621455 C-1.08649525 87.99742467 -1.09198199 76.57863898 -1.09408849 65.15984517 C-1.09539499 58.74397578 -1.09847701 52.32811808 -1.10573006 45.91225243 C-1.1124959 39.87871559 -1.1146158 33.84519531 -1.11310768 27.81165504 C-1.11338375 25.59242284 -1.11538553 23.37319011 -1.11920547 21.15396118 C-1.12415149 18.13343783 -1.12299487 15.11297769 -1.12025452 12.092453 C-1.12462378 10.76318363 -1.12462378 10.76318363 -1.12908131 9.40706033 C-1.12073062 6.02176131 -1.07805938 3.23417815 0 0 Z " fill="#875222" transform="translate(934,27)"/>
<path d="M0 0 C316.8 0 633.6 0 960 0 C960 0.99 960 1.98 960 3 C643.2 3 326.4 3 0 3 C0 2.01 0 1.02 0 0 Z " fill="#6F431C" transform="translate(0,1077)"/>
<path d="M0 0 C316.8 0 633.6 0 960 0 C959.34 0.99 958.68 1.98 958 3 C955.23572683 3.37401349 955.23572683 3.37401349 951.62170303 3.37259549 C950.95527434 3.37642975 950.28884564 3.38026401 949.60222214 3.38421445 C947.34250247 3.39348929 945.08339788 3.38116339 942.82369804 3.36914349 C941.19097567 3.37136022 939.55825464 3.37489364 937.92553765 3.37963298 C933.40148193 3.38889392 928.87762648 3.37927054 924.35358559 3.36679858 C919.44602731 3.3565417 914.53849042 3.36359959 909.63092816 3.36853105 C901.01749411 3.37476859 892.40412206 3.36979325 883.79069519 3.35761642 C870.98272443 3.33955986 858.17479301 3.33860448 845.36681184 3.34124239 C823.82494192 3.34519032 802.28309954 3.33513629 780.74123764 3.31719017 C759.40223961 3.29945849 738.06325329 3.28786715 716.72424698 3.28463173 C716.06199241 3.28452849 715.39973785 3.28442526 714.71741497 3.28431889 C708.66890399 3.28337932 702.620393 3.28251625 696.57188199 3.28174497 C681.53471784 3.27982657 666.49755395 3.27694847 651.46039009 3.27341938 C650.77556585 3.27325943 650.0907416 3.27309948 649.38516511 3.27293468 C616.05739096 3.26506661 582.72962429 3.24614249 549.40185547 3.22631836 C537.8336996 3.21944349 526.26554371 3.21261746 514.6973877 3.20599365 C513.97994758 3.2055828 513.26250746 3.20517196 512.52332673 3.20474866 C479.18287037 3.18572292 445.84241273 3.17454175 412.50195238 3.16538927 C410.33795651 3.16479507 408.17396064 3.1641975 406.00996477 3.16359923 C391.66927371 3.15963995 377.32858262 3.15581599 362.98789151 3.15208265 C334.45250365 3.14465279 305.91711604 3.13642772 277.38172856 3.12765651 C276.02274224 3.12723879 274.66375592 3.12682163 273.3047696 3.12640502 C182.86984001 3.09867481 92.43491911 3.05100953 2 3 C2 2.34 2 1.68 2 1 C1.34 0.67 0.68 0.34 0 0 Z " fill="#EAB98A" transform="translate(0,0)"/>
<path d="M0 0 C298.32 0 596.64 0 904 0 C904.33 1.65 904.66 3.3 905 5 C904.67 4.34 904.34 3.68 904 3 C606.01 3 308.02 3 1 3 C0.67 3.66 0.34 4.32 0 5 C0 3.35 0 1.7 0 0 Z " fill="#6F431C" transform="translate(29,25)"/>
<path d="M0 0 C298.32 0 596.64 0 904 0 C904 0.99 904 1.98 904 3 C606.01 3 308.02 3 1 3 C0.67 2.01 0.34 1.02 0 0 Z " fill="#EAB98A" transform="translate(29,1052)"/>
<path d="M0 0 C73.26 0 146.52 0 222 0 C222 0.99 222 1.98 222 3 C148.74 3 75.48 3 0 3 C0 2.01 0 1.02 0 0 Z " fill="#E8B27F" transform="translate(30,879)"/>
<path d="M0 0 C73.26 0 146.52 0 222 0 C222 0.99 222 1.98 222 3 C148.74 3 75.48 3 0 3 C0 2.01 0 1.02 0 0 Z " fill="#E8B27F" transform="translate(30,684)"/>
<path d="M0 0 C73.26 0 146.52 0 222 0 C222 0.99 222 1.98 222 3 C148.74 3 75.48 3 0 3 C0 2.01 0 1.02 0 0 Z " fill="#E8B27F" transform="translate(30,466)"/>
<path d="M0 0 C73.26 0 146.52 0 222 0 C222 0.99 222 1.98 222 3 C148.74 3 75.48 3 0 3 C0 2.01 0 1.02 0 0 Z " fill="#E8B27F" transform="translate(30,248)"/>
<path d="M0 0 C72.6 0 145.2 0 220 0 C220 1.65 220 3.3 220 5 C219.67 4.34 219.34 3.68 219 3 C147.06 3 75.12 3 1 3 C0.67 3.66 0.34 4.32 0 5 C0 3.35 0 1.7 0 0 Z " fill="#7C4C20" transform="translate(499,891)"/>
<path d="M0 0 C72.6 0 145.2 0 220 0 C220 1.65 220 3.3 220 5 C219.67 4.34 219.34 3.68 219 3 C147.06 3 75.12 3 1 3 C0.67 3.66 0.34 4.32 0 5 C0 3.35 0 1.7 0 0 Z " fill="#7C4C20" transform="translate(266,891)"/>
<path d="M0 0 C72.6 0 145.2 0 220 0 C220 1.65 220 3.3 220 5 C219.67 4.34 219.34 3.68 219 3 C147.06 3 75.12 3 1 3 C0.67 3.66 0.34 4.32 0 5 C0 3.35 0 1.7 0 0 Z " fill="#7C4C20" transform="translate(499,696)"/>
<path d="M0 0 C72.6 0 145.2 0 220 0 C220 1.65 220 3.3 220 5 C219.67 4.34 219.34 3.68 219 3 C147.06 3 75.12 3 1 3 C0.67 3.66 0.34 4.32 0 5 C0 3.35 0 1.7 0 0 Z " fill="#7C4C20" transform="translate(266,696)"/>
<path d="M0 0 C72.6 0 145.2 0 220 0 C220 1.65 220 3.3 220 5 C219.67 4.34 219.34 3.68 219 3 C147.06 3 75.12 3 1 3 C0.67 3.66 0.34 4.32 0 5 C0 3.35 0 1.7 0 0 Z " fill="#7C4C20" transform="translate(499,478)"/>
<path d="M0 0 C72.6 0 145.2 0 220 0 C220 1.65 220 3.3 220 5 C219.67 4.34 219.34 3.68 219 3 C147.06 3 75.12 3 1 3 C0.67 3.66 0.34 4.32 0 5 C0 3.35 0 1.7 0 0 Z " fill="#7C4C20" transform="translate(266,478)"/>
<path d="M0 0 C72.6 0 145.2 0 220 0 C220 1.65 220 3.3 220 5 C219.67 4.34 219.34 3.68 219 3 C147.06 3 75.12 3 1 3 C0.67 3.66 0.34 4.32 0 5 C0 3.35 0 1.7 0 0 Z " fill="#7C4C20" transform="translate(499,260)"/>
<path d="M0 0 C72.6 0 145.2 0 220 0 C220 1.65 220 3.3 220 5 C219.67 4.34 219.34 3.68 219 3 C147.06 3 75.12 3 1 3 C0.67 3.66 0.34 4.32 0 5 C0 3.35 0 1.7 0 0 Z " fill="#7C4C20" transform="translate(266,260)"/>
<path d="M0 0 C72.27 0 144.54 0 219 0 C219 0.99 219 1.98 219 3 C146.73 3 74.46 3 0 3 C0 2.01 0 1.02 0 0 Z " fill="#E8B27F" transform="translate(499,879)"/>
<path d="M0 0 C72.27 0 144.54 0 219 0 C219 0.99 219 1.98 219 3 C146.73 3 74.46 3 0 3 C0 2.01 0 1.02 0 0 Z " fill="#E8B27F" transform="translate(266,879)"/>
<path d="M0 0 C72.27 0 144.54 0 219 0 C219 0.99 219 1.98 219 3 C146.73 3 74.46 3 0 3 C0 2.01 0 1.02 0 0 Z " fill="#E8B27F" transform="translate(499,684)"/>
<path d="M0 0 C72.27 0 144.54 0 219 0 C219 0.99 219 1.98 219 3 C146.73 3 74.46 3 0 3 C0 2.01 0 1.02 0 0 Z " fill="#E8B27F" transform="translate(266,684)"/>
<path d="M0 0 C72.27 0 144.54 0 219 0 C219 0.99 219 1.98 219 3 C146.73 3 74.46 3 0 3 C0 2.01 0 1.02 0 0 Z " fill="#E8B27F" transform="translate(499,466)"/>
<path d="M0 0 C72.27 0 144.54 0 219 0 C219 0.99 219 1.98 219 3 C146.73 3 74.46 3 0 3 C0 2.01 0 1.02 0 0 Z " fill="#E8B27F" transform="translate(266,466)"/>
<path d="M0 0 C72.27 0 144.54 0 219 0 C219 0.99 219 1.98 219 3 C146.73 3 74.46 3 0 3 C0 2.01 0 1.02 0 0 Z " fill="#E8B27F" transform="translate(499,248)"/>
<path d="M0 0 C72.27 0 144.54 0 219 0 C219 0.99 219 1.98 219 3 C146.73 3 74.46 3 0 3 C0 2.01 0 1.02 0 0 Z " fill="#E8B27F" transform="translate(266,248)"/>
<path d="M0 0 C66.33 0 132.66 0 201 0 C201 0.99 201 1.98 201 3 C134.67 3 68.34 3 0 3 C0 2.01 0 1.02 0 0 Z " fill="#E8B27F" transform="translate(732,879)"/>
<path d="M0 0 C66.33 0 132.66 0 201 0 C201 0.99 201 1.98 201 3 C134.67 3 68.34 3 0 3 C0 2.01 0 1.02 0 0 Z " fill="#E8B27F" transform="translate(732,684)"/>
<path d="M0 0 C66.33 0 132.66 0 201 0 C201 0.99 201 1.98 201 3 C134.67 3 68.34 3 0 3 C0 2.01 0 1.02 0 0 Z " fill="#E8B27F" transform="translate(732,466)"/>
<path d="M0 0 C66.33 0 132.66 0 201 0 C201 0.99 201 1.98 201 3 C134.67 3 68.34 3 0 3 C0 2.01 0 1.02 0 0 Z " fill="#E8B27F" transform="translate(732,248)"/>
</svg>
